<svg width="1488" height="1488" viewBox="0 0 1488 1488" fill="none" xmlns="http://www.w3.org/2000/svg">
    <path
        d="M1433.29 1093.23C1440.82 1086.37 1440.57 1082.06 1433.29 1075.27C1231.61 887.031 1186.65 653.776 1070.02 653.776C1027.25 653.776 975.85 690.784 929.43 735.377C1075.13 735.377 1119.35 1128.46 1332.46 1128.46C1377.6 1128.46 1405.43 1118.63 1433.29 1093.23Z"
        stroke="#7371FC" stroke-width="100" />
    <path
        d="M57.4939 1104.3C48.5515 1106.73 46.6796 1111.84 52.4731 1119.09C149.566 1166.11 248.404 1166.11 310.54 1166.11C549.135 1166.11 674.494 979.768 776.499 852.212C944.023 642.725 1082.08 542.479 1171.37 683.298C1078.54 485.505 1029.92 321.891 929.431 321.891C733.533 321.891 582.236 992.307 57.4939 1104.3Z"
        stroke="#7371FC" stroke-width="100" />
</svg>