<svg width="26" height="26" viewBox="0 0 26 26" fill="none" xmlns="http://www.w3.org/2000/svg">
<path d="M24.5809 18.8677C24.7074 18.7524 24.7031 18.6801 24.5809 18.566C21.1925 15.4033 20.437 11.4844 18.4776 11.4844C17.7589 11.4844 16.8954 12.1061 16.1155 12.8554C18.5633 12.8554 19.3064 19.4595 22.8868 19.4595C23.6451 19.4595 24.1127 19.2944 24.5809 18.8677Z" fill="#6A6A6D"/>
<path d="M1.46601 19.0535C1.31577 19.0943 1.28432 19.1801 1.38165 19.302C3.01292 20.092 4.6735 20.092 5.71746 20.092C9.7261 20.092 11.8323 16.9612 13.5461 14.8182C16.3607 11.2986 18.6802 9.61433 20.1803 11.9802C18.6206 8.6571 17.8038 5.9082 16.1155 5.9082C12.8242 5.9082 10.2822 17.1719 1.46601 19.0535Z" fill="#6A6A6D"/>
</svg>
