<svg width="26" height="26" viewBox="0 0 26 26" fill="none" xmlns="http://www.w3.org/2000/svg">
<g clip-path="url(#clip0_2227_87)">
<path d="M21.6636 4.82862C20.0701 4.09749 18.3614 3.55883 16.5749 3.25032C16.5424 3.24436 16.5099 3.25924 16.4931 3.289C16.2733 3.67985 16.0299 4.18975 15.8595 4.59052C13.9379 4.30285 12.0262 4.30285 10.1441 4.59052C9.97359 4.18084 9.72134 3.67985 9.5006 3.289C9.48384 3.26024 9.45134 3.24536 9.4188 3.25032C7.63324 3.55785 5.92454 4.09651 4.33014 4.82862C4.31634 4.83457 4.30451 4.8445 4.29666 4.85739C1.05562 9.69943 0.16776 14.4225 0.603313 19.0869C0.605283 19.1097 0.618094 19.1316 0.635831 19.1455C2.77418 20.7158 4.84553 21.6692 6.87842 22.3011C6.91095 22.311 6.94542 22.2991 6.96613 22.2723C7.44701 21.6156 7.87567 20.9232 8.2432 20.195C8.26489 20.1524 8.24419 20.1018 8.19986 20.0849C7.51993 19.827 6.8725 19.5125 6.24972 19.1554C6.20046 19.1266 6.19651 19.0562 6.24183 19.0224C6.37289 18.9242 6.50398 18.822 6.62912 18.7189C6.65176 18.7 6.68331 18.6961 6.70993 18.708C10.8013 20.5759 15.2308 20.5759 19.2739 18.708C19.3005 18.6951 19.3321 18.699 19.3557 18.7179C19.4809 18.8211 19.6119 18.9242 19.744 19.0224C19.7893 19.0562 19.7863 19.1266 19.7371 19.1554C19.1143 19.5194 18.4669 19.827 17.7859 20.0839C17.7416 20.1008 17.7219 20.1524 17.7436 20.195C18.119 20.9221 18.5477 21.6146 19.0197 22.2713C19.0394 22.2991 19.0749 22.311 19.1074 22.3011C21.1501 21.6692 23.2215 20.7158 25.3598 19.1455C25.3786 19.1316 25.3904 19.1107 25.3924 19.0879C25.9136 13.6953 24.5193 9.01098 21.6961 4.85837C21.6892 4.8445 21.6774 4.83457 21.6636 4.82862ZM8.85419 16.2468C7.62239 16.2468 6.60743 15.1159 6.60743 13.727C6.60743 12.3382 7.60271 11.2073 8.85419 11.2073C10.1155 11.2073 11.1206 12.3481 11.1009 13.727C11.1009 15.1159 10.1056 16.2468 8.85419 16.2468ZM17.1612 16.2468C15.9294 16.2468 14.9145 15.1159 14.9145 13.727C14.9145 12.3382 15.9097 11.2073 17.1612 11.2073C18.4225 11.2073 19.4276 12.3481 19.408 13.727C19.408 15.1159 18.4225 16.2468 17.1612 16.2468Z" fill="#6A6A6D"/>
</g>
<defs>
<clipPath id="clip0_2227_87">
<rect width="25" height="25" fill="white" transform="translate(0.5 0.5)"/>
</clipPath>
</defs>
</svg>
