<svg width="26" height="26" viewBox="0 0 26 26" fill="none" xmlns="http://www.w3.org/2000/svg">
<path d="M21.3984 11.4375H14.5625C13.9409 11.4375 13.3448 11.1906 12.9052 10.751C12.4657 10.3115 12.2187 9.71535 12.2187 9.09375V2.25781C12.2187 2.20601 12.1982 2.15633 12.1615 2.11971C12.1249 2.08308 12.0752 2.0625 12.0234 2.0625H7.53125C6.70245 2.0625 5.90759 2.39174 5.32154 2.97779C4.73549 3.56384 4.40625 4.3587 4.40625 5.1875V20.8125C4.40625 21.6413 4.73549 22.4362 5.32154 23.0222C5.90759 23.6083 6.70245 23.9375 7.53125 23.9375H18.4687C19.2976 23.9375 20.0924 23.6083 20.6785 23.0222C21.2645 22.4362 21.5938 21.6413 21.5938 20.8125V11.6328C21.5938 11.581 21.5732 11.5313 21.5365 11.4947C21.4999 11.4581 21.4502 11.4375 21.3984 11.4375ZM16.9062 19.25H9.09375C8.88655 19.25 8.68784 19.1677 8.54132 19.0212C8.39481 18.8747 8.3125 18.6759 8.3125 18.4688C8.3125 18.2615 8.39481 18.0628 8.54132 17.9163C8.68784 17.7698 8.88655 17.6875 9.09375 17.6875H16.9062C17.1135 17.6875 17.3122 17.7698 17.4587 17.9163C17.6052 18.0628 17.6875 18.2615 17.6875 18.4688C17.6875 18.6759 17.6052 18.8747 17.4587 19.0212C17.3122 19.1677 17.1135 19.25 16.9062 19.25ZM16.9062 15.3437H9.09375C8.88655 15.3437 8.68784 15.2614 8.54132 15.1149C8.39481 14.9684 8.3125 14.7697 8.3125 14.5625C8.3125 14.3553 8.39481 14.1566 8.54132 14.0101C8.68784 13.8636 8.88655 13.7812 9.09375 13.7812H16.9062C17.1135 13.7812 17.3122 13.8636 17.4587 14.0101C17.6052 14.1566 17.6875 14.3553 17.6875 14.5625C17.6875 14.7697 17.6052 14.9684 17.4587 15.1149C17.3122 15.2614 17.1135 15.3437 16.9062 15.3437Z" fill="#6A6A6D"/>
<path d="M20.9697 9.7085L13.9478 2.68652C13.9341 2.67295 13.9167 2.66371 13.8978 2.65998C13.879 2.65624 13.8594 2.65818 13.8416 2.66554C13.8238 2.67289 13.8086 2.68535 13.7978 2.70133C13.7871 2.71731 13.7813 2.73612 13.7812 2.75537V9.09375C13.7812 9.30095 13.8636 9.49966 14.0101 9.64618C14.1566 9.79269 14.3553 9.875 14.5625 9.875H20.9009C20.9201 9.87492 20.9389 9.86915 20.9549 9.85841C20.9709 9.84768 20.9834 9.83245 20.9907 9.81466C20.9981 9.79687 21 9.77729 20.9963 9.75841C20.9925 9.73952 20.9833 9.72215 20.9697 9.7085Z" fill="#6A6A6D"/>
<path d="M21.3984 11.4375H14.5625C13.9409 11.4375 13.3448 11.1906 12.9052 10.751C12.4657 10.3115 12.2187 9.71535 12.2187 9.09375V2.25781C12.2187 2.20601 12.1982 2.15633 12.1615 2.11971C12.1249 2.08308 12.0752 2.0625 12.0234 2.0625H7.53125C6.70245 2.0625 5.90759 2.39174 5.32154 2.97779C4.73549 3.56384 4.40625 4.3587 4.40625 5.1875V20.8125C4.40625 21.6413 4.73549 22.4362 5.32154 23.0222C5.90759 23.6083 6.70245 23.9375 7.53125 23.9375H18.4687C19.2976 23.9375 20.0924 23.6083 20.6785 23.0222C21.2645 22.4362 21.5938 21.6413 21.5938 20.8125V11.6328C21.5938 11.581 21.5732 11.5313 21.5365 11.4947C21.4999 11.4581 21.4502 11.4375 21.3984 11.4375ZM16.9062 19.25H9.09375C8.88655 19.25 8.68784 19.1677 8.54132 19.0212C8.39481 18.8747 8.3125 18.6759 8.3125 18.4688C8.3125 18.2615 8.39481 18.0628 8.54132 17.9163C8.68784 17.7698 8.88655 17.6875 9.09375 17.6875H16.9062C17.1135 17.6875 17.3122 17.7698 17.4587 17.9163C17.6052 18.0628 17.6875 18.2615 17.6875 18.4688C17.6875 18.6759 17.6052 18.8747 17.4587 19.0212C17.3122 19.1677 17.1135 19.25 16.9062 19.25ZM16.9062 15.3437H9.09375C8.88655 15.3437 8.68784 15.2614 8.54132 15.1149C8.39481 14.9684 8.3125 14.7697 8.3125 14.5625C8.3125 14.3553 8.39481 14.1566 8.54132 14.0101C8.68784 13.8636 8.88655 13.7812 9.09375 13.7812H16.9062C17.1135 13.7812 17.3122 13.8636 17.4587 14.0101C17.6052 14.1566 17.6875 14.3553 17.6875 14.5625C17.6875 14.7697 17.6052 14.9684 17.4587 15.1149C17.3122 15.2614 17.1135 15.3437 16.9062 15.3437Z" stroke="#6A6A6D"/>
<path d="M20.9697 9.7085L13.9478 2.68652C13.9341 2.67295 13.9167 2.66371 13.8978 2.65998C13.879 2.65624 13.8594 2.65818 13.8416 2.66554C13.8238 2.67289 13.8086 2.68535 13.7978 2.70133C13.7871 2.71731 13.7813 2.73612 13.7812 2.75537V9.09375C13.7812 9.30095 13.8636 9.49966 14.0101 9.64618C14.1566 9.79269 14.3553 9.875 14.5625 9.875H20.9009C20.9201 9.87492 20.9389 9.86915 20.9549 9.85841C20.9709 9.84768 20.9834 9.83245 20.9907 9.81466C20.9981 9.79687 21 9.77729 20.9963 9.75841C20.9925 9.73952 20.9833 9.72215 20.9697 9.7085Z" stroke="#6A6A6D"/>
</svg>
