<svg width="26" height="26" viewBox="0 0 26 26" fill="none" xmlns="http://www.w3.org/2000/svg">
<path d="M18.2083 14.0417C20.5095 14.0417 22.375 15.9072 22.375 18.2083C22.375 20.5095 20.5095 22.375 18.2083 22.375C15.9769 22.375 14.0416 20.5104 14.0416 18.2083H11.9583C11.9583 20.5095 10.0928 22.375 7.79165 22.375C5.49046 22.375 3.62498 20.5095 3.62498 18.2083C3.62498 15.9072 5.49046 14.0417 7.79165 14.0417C9.33385 14.0417 10.6804 14.8795 11.4008 16.1249H14.5991C15.3196 14.8795 16.6661 14.0417 18.2083 14.0417ZM2.58331 13V10.9167H4.66665V7.79167C4.66665 5.49048 6.53213 3.625 8.83331 3.625H17.1666C19.4678 3.625 21.3333 5.49048 21.3333 7.79167V10.9167H23.4166V13H2.58331Z" fill="#6A6A6D"/>
</svg>
