<svg width="26" height="26" viewBox="0 0 26 26" fill="none" xmlns="http://www.w3.org/2000/svg">
<path d="M21.6255 6.47368C21.6182 6.46636 20.1338 7.93364 17.1797 10.8829L15.1069 8.81011L19.5234 4.39361C17.1992 2.99468 14.2134 3.35357 12.2773 5.2896C11.5373 6.02924 11.0047 6.95047 10.733 7.96089C10.4614 8.97131 10.4601 10.0354 10.7295 11.0464L10.7734 11.21L3.85205 18.129C3.70068 18.2803 3.70068 18.5293 3.85205 18.6807L7.3042 22.1329C7.45557 22.2842 7.70459 22.2842 7.85596 22.1329L14.7725 15.2164L14.936 15.2603C16.9795 15.8047 19.1743 15.2383 20.6978 13.7149C22.6362 11.7789 22.9951 8.79302 21.6255 6.47368Z" fill="#6A6A6D"/>
</svg>
