<svg width="1298" height="400" viewBox="0 0 1298 400" fill="none" xmlns="http://www.w3.org/2000/svg">
<path d="M385.294 293.879C387.317 292.035 387.249 290.877 385.294 289.052C331.078 238.449 318.991 175.746 287.641 175.746C276.142 175.746 262.325 185.695 249.847 197.682C289.012 197.682 300.902 303.349 358.188 303.349C370.321 303.349 377.802 300.706 385.294 293.879Z" fill="#7371FC"/>
<path d="M15.4553 296.855C13.0515 297.507 12.5483 298.881 14.1056 300.831C40.2059 313.47 66.7751 313.47 83.4786 313.47C147.617 313.47 181.316 263.378 208.736 229.089C253.77 172.776 290.883 145.828 314.884 183.682C289.929 130.512 276.859 86.5298 249.847 86.5298C197.186 86.5298 156.515 266.749 15.4553 296.855Z" fill="#7371FC"/>
<path d="M528 295.039V112.007H539.835L541.068 145.646L537.616 148.614C540.574 140.534 544.93 133.609 550.683 127.837C556.601 121.901 563.669 117.284 571.887 113.986C580.27 110.688 589.31 109.039 599.008 109.039C611.665 109.039 623.007 111.925 633.033 117.696C643.06 123.468 651.032 131.465 656.949 141.688C662.867 151.747 665.825 163.289 665.825 176.316C665.825 189.013 662.949 200.39 657.196 210.449C651.607 220.507 643.717 228.422 633.526 234.194C623.335 239.965 611.747 242.851 598.762 242.851C588.9 242.851 579.859 241.202 571.641 237.904C563.586 234.441 556.683 229.824 550.93 224.053C545.177 218.116 540.739 211.191 537.616 203.276L540.328 206.244V295.039H528ZM597.036 230.484C607.884 230.484 617.5 228.175 625.883 223.558C634.266 218.776 640.841 212.345 645.608 204.265C650.539 196.021 652.922 186.704 652.758 176.316C652.758 165.598 650.292 156.116 645.361 147.872C640.594 139.627 634.019 133.196 625.637 128.579C617.254 123.797 607.72 121.406 597.036 121.406C585.859 121.406 575.914 123.797 567.203 128.579C558.491 133.196 551.669 139.627 546.738 147.872C541.972 155.952 539.506 165.351 539.342 176.069C539.342 186.622 541.807 196.021 546.738 204.265C551.669 212.345 558.409 218.776 566.956 223.558C575.668 228.175 585.694 230.484 597.036 230.484Z" fill="#7371FC"/>
<path d="M770.56 243.098C756.424 243.098 743.85 240.295 732.837 234.688C721.988 229.082 713.523 221.249 707.441 211.191C701.36 201.132 698.319 189.425 698.319 176.069C698.319 166.01 700.045 156.941 703.496 148.861C707.113 140.781 712.044 133.773 718.29 127.837C724.536 121.736 731.933 117.119 740.48 113.986C749.027 110.688 758.232 109.039 768.094 109.039C777.957 109.039 786.915 110.523 794.969 113.491C803.023 116.295 809.845 120.499 815.433 126.106C821.186 131.547 825.542 138.061 828.501 145.646C831.459 153.231 832.774 161.64 832.446 170.874L832.199 178.542H708.181V167.164H825.542L820.364 170.627L820.118 164.691C820.118 158.095 818.063 151.499 813.954 144.904C810.009 138.143 804.174 132.537 796.448 128.085C788.723 123.632 779.189 121.406 767.848 121.406C757.492 121.406 748.041 123.385 739.494 127.343C730.946 131.135 724.125 137.071 719.03 145.151C713.934 153.066 711.386 163.124 711.386 175.327C711.386 186.539 713.852 196.268 718.783 204.513C723.714 212.757 730.7 219.188 739.74 223.805C748.945 228.257 760.04 230.484 773.025 230.484C781.737 230.484 789.791 229.412 797.188 227.268C804.585 224.96 812.475 220.755 820.858 214.654L826.528 224.3C822.255 227.598 817.324 230.731 811.735 233.699C806.311 236.667 800.147 238.976 793.243 240.624C786.504 242.273 778.943 243.098 770.56 243.098Z" fill="#7371FC"/>
<path d="M882.185 240.624V112.007H894.019L895.252 143.172L892.54 144.656C894.841 138.061 898.211 132.124 902.649 126.848C907.087 121.406 912.347 117.119 918.429 113.986C924.675 110.688 931.743 109.039 939.632 109.039C943.742 109.039 947.687 109.452 951.467 110.276C955.248 110.936 958.453 111.843 961.083 112.997L957.138 126.848C954.344 125.199 951.221 124.127 947.769 123.632C944.481 122.973 941.523 122.643 938.893 122.643C931.332 122.643 924.757 123.88 919.168 126.353C913.744 128.827 909.142 132.289 905.361 136.741C901.745 141.029 899.033 145.893 897.225 151.335C895.417 156.611 894.513 162.053 894.513 167.659V240.624H882.185Z" fill="#7371FC"/>
<path d="M1004.5 295.039V112.007H1016.33L1017.57 145.646L1014.12 148.614C1017.07 140.534 1021.43 133.609 1027.18 127.837C1033.1 121.901 1040.17 117.284 1048.39 113.986C1056.77 110.688 1065.81 109.039 1075.51 109.039C1088.16 109.039 1099.51 111.925 1109.53 117.696C1119.56 123.468 1127.53 131.465 1133.45 141.688C1139.37 151.747 1142.33 163.289 1142.33 176.316C1142.33 189.013 1139.45 200.39 1133.7 210.449C1128.11 220.507 1120.22 228.422 1110.03 234.194C1099.84 239.965 1088.25 242.851 1075.26 242.851C1065.4 242.851 1056.36 241.202 1048.14 237.904C1040.09 234.441 1033.18 229.824 1027.43 224.053C1021.68 218.116 1017.24 211.191 1014.12 203.276L1016.83 206.244V295.039H1004.5ZM1073.54 230.484C1084.38 230.484 1094 228.175 1102.38 223.558C1110.77 218.776 1117.34 212.345 1122.11 204.265C1127.04 196.021 1129.42 186.704 1129.26 176.316C1129.26 165.598 1126.79 156.116 1121.86 147.872C1117.09 139.627 1110.52 133.196 1102.14 128.579C1093.75 123.797 1084.22 121.406 1073.54 121.406C1062.36 121.406 1052.41 123.797 1043.7 128.579C1034.99 133.196 1028.17 139.627 1023.24 147.872C1018.47 155.952 1016.01 165.351 1015.84 176.069C1015.84 186.622 1018.31 196.021 1023.24 204.265C1028.17 212.345 1034.91 218.776 1043.46 223.558C1052.17 228.175 1062.19 230.484 1073.54 230.484Z" fill="#7371FC"/>
<path d="M1235.47 243.098C1222.49 243.098 1210.9 240.872 1200.71 236.42C1190.52 231.968 1182.54 226.361 1176.79 219.601L1186.16 210.944C1191.42 217.539 1198.32 222.569 1206.87 226.031C1215.42 229.329 1224.79 230.978 1234.98 230.978C1240.73 230.978 1246.07 230.484 1251 229.494C1256.1 228.505 1260.46 227.103 1264.07 225.289C1267.85 223.476 1270.81 221.085 1272.95 218.116C1275.09 214.984 1276.15 211.438 1276.15 207.481C1276.15 200.885 1272.46 195.444 1265.06 191.156C1261.44 189.343 1256.92 187.611 1251.5 185.962C1246.24 184.148 1239.99 182.499 1232.76 181.015C1222.9 178.542 1214.43 176.316 1207.36 174.337C1200.3 172.194 1194.71 169.473 1190.6 166.175C1187.48 163.537 1185.09 160.486 1183.45 157.023C1181.97 153.561 1181.23 149.686 1181.23 145.398C1181.23 140.122 1182.46 135.257 1184.93 130.805C1187.39 126.353 1190.93 122.478 1195.53 119.18C1200.3 115.882 1205.72 113.409 1211.8 111.76C1217.88 109.946 1224.71 109.039 1232.27 109.039C1239.01 109.039 1245.83 109.946 1252.73 111.76C1259.8 113.409 1266.37 115.8 1272.46 118.933C1278.7 122.066 1284.04 125.776 1288.48 130.063L1280.35 139.462C1276.4 135.835 1271.96 132.619 1267.03 129.816C1262.26 126.848 1256.92 124.539 1251 122.89C1245.25 121.241 1239.17 120.417 1232.76 120.417C1227.66 120.417 1222.73 120.994 1217.97 122.148C1213.36 123.138 1209.34 124.787 1205.88 127.095C1202.43 129.239 1199.64 131.795 1197.5 134.763C1195.37 137.731 1194.3 141.029 1194.3 144.656C1194.13 147.789 1194.71 150.428 1196.02 152.571C1197.34 154.55 1199.23 156.364 1201.69 158.013C1205.15 160.321 1209.67 162.3 1215.25 163.949C1220.84 165.433 1227.75 167.082 1235.96 168.896C1243.69 170.545 1250.59 172.194 1256.68 173.843C1262.76 175.491 1267.93 177.47 1272.21 179.779C1277.8 182.912 1281.99 186.622 1284.78 190.909C1287.74 195.196 1289.22 200.226 1289.22 205.997C1289.22 213.417 1286.92 219.93 1282.32 225.537C1277.88 230.978 1271.63 235.265 1263.58 238.398C1255.53 241.531 1246.16 243.098 1235.47 243.098Z" fill="#7371FC"/>
</svg>
